<svg version="1" xmlns="http://www.w3.org/2000/svg" width="682.667" height="682.667" viewBox="0 0 512.000000 512.000000"><path d="M250.5 10.8c-.3.3-1.6.7-2.8.9-1.2.2-3.1.5-4.2.8-1.1.2-2.4.4-2.9.4-.5-.1-1.2.3-1.5.8-.3.5-2.2 1.8-4.2 3-2 1.1-4.7 3-6 4.1-2.7 2.3-25.7 20.3-30.9 24.2-1.9 1.4-4.2 3.3-5.2 4.2-1 1-2.1 1.8-2.5 1.8-.5 0-2.5 1.6-4.5 3.5s-4.1 3.5-4.6 3.5c-.6 0-1.2.3-1.4.8-.1.4-2.3 2.3-4.8 4.2-2.5 1.9-4.8 3.9-5.2 4.5-.5.6-.8.6-.8 0 0-.5-.7.1-1.6 1.3-.8 1.2-1.9 2.2-2.4 2.2s-2.3 1.2-3.9 2.7c-1.7 1.6-4.8 4.1-7.1 5.8-2.2 1.6-5.2 3.9-6.5 5-1.3 1.1-3.3 2.8-4.4 3.7-1.2 1-2.5 1.8-3 1.8s-1.1.3-1.3.8c-.1.4-2.3 2.3-4.8 4.2-2.5 1.9-5 3.9-5.6 4.5-.7.5-2.4 1.9-4 3-3.2 2.3-6.8 5.2-9.5 7.7-1 1-1.9 1.6-1.9 1.3 0-.5-3.9 2.6-7.2 5.7-1 1-2 1.8-2.3 1.8-.3 0-1.3.7-2.2 1.5-1 .8-5.8 4.6-10.8 8.5-11.3 8.7-14.4 11.2-15.9 12.5-.6.5-4.9 3.9-9.6 7.5-4.7 3.6-9.2 7-10 7.7-3.6 2.9-14 11-17 13.3-5 3.8-11.1 8.7-14.8 12-1.9 1.7-3.9 3-4.5 3-.6 0-.7.3-.4.6.4.4-.2 1.9-1.3 3.4-2 2.8-3.9 9.5-3.4 12 1.2 6.1 1.8 7.7 3.7 10.4 2.9 4.2 5 6.2 13.2 12.6 9.5 7.3 9.4 7.3 11.6 9.2 1 1 2.3 1.8 2.7 1.8.4 0 1.4.9 2.2 2 .8 1.1 1.9 2 2.5 2 .5 0 2.4 1.4 4.2 3 1.8 1.7 3.6 3 4.2 3 .5 0 1.1.4 1.3.8.2.5 2.8 2.7 5.8 5.1 8.6 6.6 11.9 9.3 18 14.1 3.1 2.5 7.2 5.6 9 7 1.8 1.4 3.8 2.9 4.4 3.5.6.5 3.2 2.6 5.8 4.5 5.1 3.7 5.7 5.2 3.3 7.7-.8.8-1.3 1.9-1 2.4.4.5.1.9-.5.9-.7 0-1 .7-.6 1.5.3.8 0 1.5-.6 1.5s-.8.3-.5.7c.4.3.3 1.1-.2 1.7-1.5 1.9-2.4 8.6-2.5 20.6-.2 11.4-.8 14.6-2.7 13.5-.5-.4-.9-.1-.9.4 0 .6-.7 1.1-1.6 1.1-.8 0-2.2.6-2.9 1.3-.8.6-3.2 2.5-5.4 4.2-3.6 2.8-11 12.7-11.2 15-.1.5-.5 1.8-1.1 2.8-1.3 2.5-2 6.3-2.2 11.2 0 2.2-.5 4.3-1.1 4.7-.7.5-.7.8 0 .8.6 0 1.1 1.2 1.2 2.8.4 7.5 4.3 16.5 10.1 23.2l3.5 4 .2 43.8c.1 42.4.2 43.9 2.3 49.3 4.5 11.3 12.5 16.3 26.3 16.4 7.2 0 9.3-.4 13.3-2.5 4.7-2.4 11.6-9.9 11.6-12.6 0-.8.4-1.4 1-1.4.5 0 .9-.3.8-.8-.1-.4.2-2.7.6-5.1 1-5.2 1.2-75.4.2-76.9-.3-.6-.2-1.3.3-1.7.6-.3 3 1.2 5.3 3.4 10.5 9.8 13.8 12.8 18.3 16.6 2.7 2.2 6 5 7.3 6.3 1.4 1.2 2.9 2.2 3.4 2.2s.6.4.3 1c-.3.5-.1 1 .6 1 .6 0 2.6 1.2 4.4 2.7 1.8 1.6 4.7 3.9 6.5 5.3 1.8 1.4 4.9 3.8 6.9 5.5 2.1 1.6 5 3.9 6.5 5 2.8 2 9.2 6.8 11.1 8.3.6.4 6.4 4.5 13 9.2 6.6 4.6 12.2 8.8 12.3 9.2.2.5.8.8 1.3.8.7 0 9.5 5.6 10.9 7 .3.3 1.7 1.1 3.3 1.9 2.3 1.2 3.1 1.2 5.5 0 1.5-.8 3.6-2.2 4.6-3.1 1.1-1 2.6-1.8 3.3-1.8.7 0 1.3-.5 1.3-1 0-.6.5-1 1.1-1 .6 0 1.6-.6 2.3-1.3.8-.6 2.2-1.8 3.2-2.4 3.5-2.3 31.9-22.6 32.4-23.2.3-.3 2.3-1.8 4.5-3.3 2.2-1.5 5.2-3.8 6.7-5 1.4-1.3 4.1-3.4 5.8-4.8 1.8-1.4 3.7-3 4.4-3.5.6-.6 3.1-2.6 5.6-4.5 2.5-1.9 5.4-4.3 6.5-5.5 1.1-1.1 4.3-3.8 7-6 2.8-2.2 7-5.9 9.4-8.3 2.4-2.3 4.6-4.2 4.8-4.2.6 0 12.4-12 16.1-16.3 1.7-2.2 3.2-3.6 3.2-3.2 0 .4 1-.5 2.2-2.1 1.2-1.6 2.5-3.1 2.8-3.4.5-.5 7.3-8.9 9.5-11.8.6-.7 1.8-2.2 2.7-3.3 1-1 1.5-1.9 1.2-1.9-.3 0 .4-1.2 1.5-2.6 1.2-1.5 2.1-3.3 2.1-4 0-.8.4-1.4.8-1.4 1 0 4.8-8 4.5-9.2-.2-.5.2-.8.7-.8.5 0 .9-.3.9-.8-.1-.4 0-.9.1-1.2.3-.8.9-3.3 1.5-6.5.3-1.7.8-3.5 1-4.2.2-.7 0-1.5-.5-1.8-.6-.4-.7-1.4-.2-2.3.6-1.5.8-4.7.2-6.2-.3-.9-.7-3.4-1.4-8-.9-6.9-7-27.6-8.6-29-.3-.3-1.1-2.2-1.9-4.4-1.3-3.8-1.3-3.9 2-6.7 1.9-1.6 4.2-3.2 5.2-3.5.9-.3 1.5-1 1.2-1.5-.4-.5-.1-.9.5-.9 1.2 0 11.2-7.9 11.8-9.3.2-.4 1-.7 1.7-.7s1.5-.3 1.7-.8c.2-.4 3.5-3.2 7.3-6.2 3.9-3 7.5-5.8 8-6.2.6-.4 3.8-3 7.1-5.8 3.4-2.7 6.5-5 6.8-5 .3 0 1.5-.8 2.5-1.8 2.2-1.9 3.1-2.6 8.6-6.7 2.1-1.7 4.6-3.7 5.5-4.5.9-.8 2.8-2.4 4.4-3.5 1.5-1.1 3.9-3 5.2-4.3 1.4-1.2 2.8-2.2 3.2-2.2 1 0 9.2-7.9 11.9-11.4 1.3-1.5 2-3.2 1.7-3.7-.3-.5-.1-.9.4-.9s.9-.6 1-1.3c1.8-12.6-1.3-18-17.2-30.5-12.5-9.8-21-16.5-24.3-19.3-1.3-1-2.3-1.6-2.3-1.2 0 .3-1.4-.8-3-2.6-1.7-1.7-3.5-3.1-4-3.1-.6 0-1-.5-1-1 0-.6-.5-1-1.1-1-.7 0-2-1-3-2.2-1.1-1.1-1.9-1.8-1.9-1.4 0 .4-1.2-.5-2.7-1.9-1.6-1.4-7.1-5.8-12.3-9.8-5.2-3.9-10-7.6-10.7-8.2-.6-.5-2.3-1.9-3.8-3-1.4-1.1-3.4-2.7-4.3-3.5-1-.8-3.3-2.6-5.2-4-1.9-1.3-4.3-3.3-5.2-4.4-1-1-1.8-1.6-1.8-1.2 0 .4-.6.1-1.3-.6-.8-.7-2.8-2.4-4.6-3.8-1.8-1.4-3.8-3-4.4-3.5-.7-.6-5.2-4.2-10.2-8-4.9-3.8-9.1-7.3-9.3-7.7-.2-.5-.8-.8-1.3-.8-.9 0-3.4-2-8.7-6.8-1.4-1.2-2.8-2.2-3.1-2.2-.3 0-1.7-1-3.1-2.3-1.4-1.2-4.3-3.5-6.5-5.2-2.2-1.6-5-3.9-6.3-5.1-1.3-1.1-4.1-3.2-6.2-4.5-2.2-1.3-4-3-4-3.7 0-.7-.4-1-1-.7-.5.3-1 .1-1-.4 0-.6-.6-1.1-1.4-1.1-.8 0-1.6-.3-1.8-.8-.3-.7-3.3-3.2-9.9-8.3-1.9-1.5-7-5.5-11.5-9s-9.6-7.5-11.4-8.9c-1.8-1.4-4.4-3.5-5.8-4.7-3.1-2.6-9.8-6.1-13.2-6.9-6.6-1.5-16.7-2.4-17.5-1.6z"/></svg>